<svg id="visual" viewBox="0 0 900 600" width="900" height="600" xmlns="http://www.w3.org/2000/svg" xmlns:xlink="http://www.w3.org/1999/xlink" version="1.1"><path d="M0 127L13.7 114C27.3 101 54.7 75 82 65C109.3 55 136.7 61 163.8 69C191 77 218 87 245.2 88C272.3 89 299.7 81 327 79C354.3 77 381.7 81 409 80C436.3 79 463.7 73 491 75C518.3 77 545.7 87 573 90C600.3 93 627.7 89 654.8 93C682 97 709 109 736.2 105C763.3 101 790.7 81 818 70C845.3 59 872.7 57 886.3 56L900 55L900 0L886.3 0C872.7 0 845.3 0 818 0C790.7 0 763.3 0 736.2 0C709 0 682 0 654.8 0C627.7 0 600.3 0 573 0C545.7 0 518.3 0 491 0C463.7 0 436.3 0 409 0C381.7 0 354.3 0 327 0C299.7 0 272.3 0 245.2 0C218 0 191 0 163.8 0C136.7 0 109.3 0 82 0C54.7 0 27.3 0 13.7 0L0 0Z" fill="#6198ff"></path><path d="M0 187L13.7 176C27.3 165 54.7 143 82 140C109.3 137 136.7 153 163.8 156C191 159 218 149 245.2 142C272.3 135 299.7 131 327 133C354.3 135 381.7 143 409 146C436.3 149 463.7 147 491 147C518.3 147 545.7 149 573 145C600.3 141 627.7 131 654.8 141C682 151 709 181 736.2 182C763.3 183 790.7 155 818 140C845.3 125 872.7 123 886.3 122L900 121L900 53L886.3 54C872.7 55 845.3 57 818 68C790.7 79 763.3 99 736.2 103C709 107 682 95 654.8 91C627.7 87 600.3 91 573 88C545.7 85 518.3 75 491 73C463.7 71 436.3 77 409 78C381.7 79 354.3 75 327 77C299.7 79 272.3 87 245.2 86C218 85 191 75 163.8 67C136.7 59 109.3 53 82 63C54.7 73 27.3 99 13.7 112L0 125Z" fill="#3c80ff"></path><path d="M0 319L13.7 312C27.3 305 54.7 291 82 278C109.3 265 136.7 253 163.8 255C191 257 218 273 245.2 280C272.3 287 299.7 285 327 277C354.3 269 381.7 255 409 256C436.3 257 463.7 273 491 280C518.3 287 545.7 285 573 279C600.3 273 627.7 263 654.8 268C682 273 709 293 736.2 288C763.3 283 790.7 253 818 231C845.3 209 872.7 195 886.3 188L900 181L900 119L886.3 120C872.7 121 845.3 123 818 138C790.7 153 763.3 181 736.2 180C709 179 682 149 654.8 139C627.7 129 600.3 139 573 143C545.7 147 518.3 145 491 145C463.7 145 436.3 147 409 144C381.7 141 354.3 133 327 131C299.7 129 272.3 133 245.2 140C218 147 191 157 163.8 154C136.7 151 109.3 135 82 138C54.7 141 27.3 163 13.7 174L0 185Z" fill="#0066ff"></path><path d="M0 511L13.7 485C27.3 459 54.7 407 82 399C109.3 391 136.7 427 163.8 444C191 461 218 459 245.2 445C272.3 431 299.7 405 327 387C354.3 369 381.7 359 409 382C436.3 405 463.7 461 491 477C518.3 493 545.7 469 573 465C600.3 461 627.7 477 654.8 472C682 467 709 441 736.2 434C763.3 427 790.7 439 818 451C845.3 463 872.7 475 886.3 481L900 487L900 179L886.3 186C872.7 193 845.3 207 818 229C790.7 251 763.3 281 736.2 286C709 291 682 271 654.8 266C627.7 261 600.3 271 573 277C545.7 283 518.3 285 491 278C463.7 271 436.3 255 409 254C381.7 253 354.3 267 327 275C299.7 283 272.3 285 245.2 278C218 271 191 255 163.8 253C136.7 251 109.3 263 82 276C54.7 289 27.3 303 13.7 310L0 317Z" fill="#0059dd"></path><path d="M0 601L13.7 601C27.3 601 54.7 601 82 601C109.3 601 136.7 601 163.8 601C191 601 218 601 245.2 601C272.3 601 299.7 601 327 601C354.3 601 381.7 601 409 601C436.3 601 463.7 601 491 601C518.3 601 545.7 601 573 601C600.3 601 627.7 601 654.8 601C682 601 709 601 736.2 601C763.3 601 790.7 601 818 601C845.3 601 872.7 601 886.3 601L900 601L900 485L886.3 479C872.7 473 845.3 461 818 449C790.7 437 763.3 425 736.2 432C709 439 682 465 654.8 470C627.7 475 600.3 459 573 463C545.7 467 518.3 491 491 475C463.7 459 436.3 403 409 380C381.7 357 354.3 367 327 385C299.7 403 272.3 429 245.2 443C218 457 191 459 163.8 442C136.7 425 109.3 389 82 397C54.7 405 27.3 457 13.7 483L0 509Z" fill="#004cbb"></path></svg>